<?xml version="1.0" encoding="UTF-8"?>
<svg xmlns="http://www.w3.org/2000/svg" xmlns:xlink="http://www.w3.org/1999/xlink" width="1500pt" height="825pt" viewBox="0 0 1500 825" version="1.1">
<g id="surface1">
<path style=" stroke:none;fill-rule:nonzero;fill:rgb(9.812927%,57.226563%,27.050781%);fill-opacity:1;" d="M 0 0 L 1500 0 L 1500 825 L 0 825 L 0 0 M 47.019531 46.898438 C 46.988281 290.691406 46.988281 534.488281 47.019531 778.28125 C 515.671875 778.308594 984.328125 778.308594 1452.980469 778.28125 C 1453.019531 534.488281 1453.011719 290.699219 1452.988281 46.898438 C 984.328125 46.871094 515.671875 46.871094 47.019531 46.898438 "/>
<path style=" stroke:none;fill-rule:nonzero;fill:rgb(12.156677%,10.205078%,9.008789%);fill-opacity:1;" d="M 47.019531 46.898438 C 515.671875 46.871094 984.328125 46.871094 1452.988281 46.898438 C 1453.011719 290.699219 1453.019531 534.488281 1452.980469 778.28125 C 984.328125 778.308594 515.671875 778.308594 47.019531 778.28125 C 46.988281 534.488281 46.988281 290.691406 47.019531 46.898438 M 74.230469 73.671875 C 74.269531 299.648438 74.21875 525.628906 74.25 751.601563 C 524.75 751.609375 975.25 751.609375 1425.75 751.601563 C 1425.769531 525.621094 1425.75 299.628906 1425.761719 73.648438 C 975.25 73.640625 524.738281 73.589844 74.230469 73.671875 M 163.578125 129.160156 C 175.71875 129.210938 187.859375 129.429688 200 129.460938 C 205.078125 150.800781 209.730469 172.261719 214.648438 193.640625 C 219.550781 172.171875 223.960938 150.589844 229.179688 129.191406 C 241.25 129.300781 253.320313 129.660156 265.378906 129.851563 C 264.929688 161.480469 265.800781 193.121094 266.828125 224.730469 C 258.179688 224.53125 249.550781 224.011719 240.910156 223.691406 C 241.898438 208.121094 241.871094 192.511719 242.269531 176.921875 C 242.320313 168.769531 242.628906 160.589844 241.648438 152.480469 C 238.070313 166.808594 235.011719 181.269531 231.480469 195.609375 C 228.640625 204.980469 225.769531 214.328125 222.890625 223.691406 C 214.71875 223.679688 206.550781 223.691406 198.378906 223.679688 C 192.859375 201.25 187.53125 178.769531 181.890625 156.371094 C 181.511719 179.621094 181.53125 202.878906 181.25 226.140625 C 173.691406 225.890625 166.128906 225.558594 158.570313 225.261719 C 160.300781 193.230469 162.070313 161.199219 163.578125 129.160156 M 288.96875 161.910156 C 297.5 155.46875 308.578125 153.609375 319.03125 153.640625 C 327.601563 153.800781 336.75 154.941406 343.839844 160.191406 C 348.878906 163.871094 351.789063 169.941406 352.261719 176.089844 C 352.941406 185.738281 351.019531 195.398438 352.019531 205.039063 C 352.570313 211.261719 353.871094 217.378906 355.089844 223.5 C 346.988281 222.429688 338.828125 223.371094 330.898438 225.128906 C 329.53125 222.730469 328.410156 220.210938 327.191406 217.738281 C 317.808594 224.070313 306.128906 226.71875 294.921875 225.488281 C 289.339844 224.820313 283.519531 222.519531 280.28125 217.699219 C 276.789063 212.46875 277.289063 205.648438 279.089844 199.910156 C 280.851563 194.441406 284.328125 188.71875 290.289063 187.269531 C 303.179688 183.679688 316.628906 182.710938 329.921875 181.648438 C 329.941406 178.511719 329.730469 175.378906 329.488281 172.25 C 322.328125 169.738281 314.640625 168.410156 307.039063 168.851563 C 306.929688 171.800781 306.78125 174.738281 306.660156 177.691406 C 298.269531 176.648438 289.808594 176.710938 281.390625 177.160156 C 281.050781 171.140625 284.199219 165.429688 288.96875 161.910156 M 304.328125 198.308594 C 304.328125 202.261719 304.328125 206.210938 304.320313 210.171875 C 310.570313 209.78125 316.808594 209.230469 323.058594 208.800781 C 323.980469 204.179688 324.160156 199.46875 324.160156 194.78125 C 317.441406 195.128906 310.789063 196.410156 304.328125 198.308594 M 454.671875 165.679688 C 458.941406 159.191406 466.300781 155.210938 473.890625 154.140625 C 484.269531 152.558594 496.03125 154.351563 503.589844 162.21875 C 504.671875 160.058594 505.800781 157.921875 506.941406 155.78125 C 512.480469 155.851563 518.019531 155.988281 523.570313 156.101563 C 523.550781 172.730469 523.558594 189.359375 523.558594 205.988281 C 523.421875 215.03125 523.988281 224.148438 522.5 233.109375 C 521.460938 240.191406 516.058594 245.761719 509.960938 249.019531 C 499.570313 254.519531 487.371094 254.929688 475.910156 253.871094 C 467.859375 252.988281 459.160156 250.691406 453.839844 244.128906 C 449.199219 238.480469 448.601563 230.808594 448.851563 223.789063 C 457.199219 224.261719 465.53125 224.839844 473.871094 225.351563 C 473.789063 229.101563 473.761719 232.839844 473.679688 236.589844 C 480.710938 236.769531 487.730469 236.699219 494.761719 236.789063 C 494.800781 229.96875 494.890625 223.148438 494.960938 216.320313 C 485.460938 220.648438 473.988281 220.871094 464.46875 216.5 C 456.03125 212.609375 450.859375 203.808594 449.601563 194.828125 C 448.238281 184.96875 449.03125 174.171875 454.671875 165.679688 M 477.828125 173.101563 C 477.820313 181.878906 477.820313 190.660156 477.828125 199.449219 C 486.269531 199.261719 494.71875 199.109375 503.160156 198.910156 C 503 190.609375 502.691406 182.320313 502.46875 174.019531 C 494.261719 173.679688 486.039063 173.429688 477.828125 173.101563 M 387.949219 166.839844 C 396.589844 160.28125 406.949219 155.109375 418.03125 155.230469 C 423.648438 155.25 429.910156 156.71875 433.398438 161.5 C 437.410156 167.089844 437.53125 174.398438 437.050781 180.988281 C 435.828125 195.480469 435.808594 210.039063 436.351563 224.558594 C 427.828125 223.921875 419.28125 223.71875 410.75 223.390625 C 411.179688 214.910156 411.550781 206.429688 411.820313 197.960938 C 411.359375 190.671875 410.480469 183.421875 409.921875 176.140625 C 403.789063 176.421875 397.671875 176.851563 391.550781 177.160156 C 391.589844 185.410156 392.390625 193.671875 391.730469 201.910156 C 391.390625 208.21875 391.191406 214.53125 391 220.851563 C 382.949219 221.121094 374.898438 221.320313 366.851563 221.578125 C 367.699219 200.671875 369.039063 179.660156 367.199219 158.769531 C 373.648438 159.171875 380.101563 159.511719 386.539063 160.039063 C 386.988281 162.308594 387.460938 164.578125 387.949219 166.839844 M 1034.921875 196.949219 C 1067.351563 190.671875 1099.738281 184.261719 1132.160156 177.949219 C 1143.859375 229.050781 1155.378906 280.191406 1167.121094 331.28125 C 1169.339844 306.320313 1171.339844 281.351563 1173.460938 256.378906 C 1222.800781 255.378906 1272.128906 254.378906 1321.460938 253.398438 C 1315.71875 307.960938 1309.921875 362.519531 1304.179688 417.078125 C 1322.378906 413.019531 1340.558594 408.898438 1358.761719 404.839844 C 1352.851563 464.800781 1346.871094 524.75 1340.96875 584.710938 C 1276.761719 574.960938 1212.570313 565.140625 1148.371094 555.359375 C 1150.039063 534.96875 1151.808594 514.578125 1153.480469 494.199219 C 1116.261719 504.140625 1079.050781 514.148438 1041.828125 524.109375 C 1042.019531 520.328125 1042.25 516.558594 1042.480469 512.789063 C 1030.871094 511.230469 1019.269531 509.46875 1007.640625 508.058594 C 1002.46875 532.859375 988 555.421875 967.929688 570.808594 C 948.429688 586 924.851563 594.828125 901.070313 600.738281 C 853.441406 611.871094 804.300781 612.75 755.691406 615.261719 C 755.019531 591.511719 754.410156 567.761719 753.828125 544 C 711.359375 555.359375 668.921875 566.820313 626.449219 578.179688 C 626.660156 574.390625 626.851563 570.601563 627.128906 566.820313 C 605.730469 563.710938 584.28125 560.960938 562.859375 558 C 561.75 580.351563 560.671875 602.710938 559.601563 625.070313 C 517.128906 633.441406 474.648438 641.730469 432.179688 650.058594 C 426.898438 641.25 421.960938 632.230469 416.5 623.53125 C 370.941406 631 325.308594 638.070313 279.71875 645.378906 C 279.699219 625.660156 279.738281 605.941406 279.699219 586.21875 C 248.558594 597.359375 217.441406 608.539063 186.28125 619.648438 C 166.558594 515.53125 146.78125 411.421875 127.050781 307.308594 C 171.308594 294.421875 215.570313 281.480469 259.839844 268.589844 C 266.808594 295.519531 273.75 322.460938 280.738281 349.390625 C 323.109375 340.011719 365.460938 330.589844 407.828125 321.21875 C 410.238281 325.351563 412.671875 329.488281 415.089844 333.621094 C 468.398438 324.941406 521.699219 316.179688 575.011719 307.511719 C 573.78125 333.300781 572.46875 359.078125 571.28125 384.871094 C 587.398438 340.328125 603.351563 295.730469 619.320313 251.128906 C 651.769531 244.699219 684.25 238.398438 716.71875 232.039063 C 726.761719 276.328125 736.800781 320.628906 746.878906 364.910156 C 755.429688 346.640625 768.199219 330.390625 784.011719 317.851563 C 811.078125 296.011719 845.089844 284.890625 878.960938 279.070313 C 902.058594 274.96875 925.539063 274.121094 948.898438 272.519531 C 951.109375 321.421875 952.601563 370.351563 954.988281 419.238281 C 981.808594 345.210938 1008.160156 271 1034.921875 196.949219 M 1057.328125 222.480469 C 1031.078125 295.53125 1004.839844 368.570313 978.679688 441.640625 C 991.558594 450.53125 1002.269531 463.171875 1006.921875 478.289063 C 1018.878906 479.96875 1030.839844 481.730469 1042.839844 483.199219 C 1048.308594 461.941406 1053.910156 440.71875 1059.46875 419.5 C 1065.738281 417.5 1072 415.488281 1078.28125 413.519531 C 1076.910156 437.410156 1075.371094 461.300781 1074.03125 485.191406 C 1104.691406 477.019531 1135.328125 468.738281 1165.988281 460.570313 C 1147.230469 377.789063 1128.339844 295.03125 1109.5 212.269531 C 1092.109375 215.691406 1074.71875 219.078125 1057.328125 222.480469 M 641.769531 276.660156 C 611.890625 360.121094 581.851563 443.519531 551.96875 526.96875 C 577.011719 530.390625 602.050781 533.789063 627.101563 537.191406 C 632.679688 516.019531 638.230469 494.828125 643.769531 473.648438 C 650.019531 471.488281 656.328125 469.488281 662.621094 467.441406 C 661.289063 491.390625 659.839844 515.328125 658.53125 539.289063 C 689.128906 531.128906 719.699219 522.828125 750.308594 514.679688 C 731.679688 431.898438 712.769531 349.171875 694.039063 266.410156 C 676.601563 269.761719 659.171875 273.140625 641.769531 276.660156 M 1201.011719 285.058594 C 1197.070313 332.398438 1192.96875 379.730469 1189.140625 427.070313 C 1192.78125 445.21875 1197.25 463.238281 1201.300781 481.320313 C 1195.609375 483.039063 1189.839844 484.410156 1184.128906 486.019531 C 1182.949219 500.941406 1181.449219 515.851563 1180.5 530.789063 C 1225.148438 537.378906 1269.738281 544.371094 1314.371094 551.109375 C 1317.988281 514.878906 1321.558594 478.648438 1325.128906 442.421875 C 1306.828125 446.46875 1288.558594 450.648438 1270.261719 454.71875 C 1276.28125 397.578125 1282.351563 340.449219 1288.359375 283.308594 C 1259.238281 283.859375 1230.121094 284.441406 1201.011719 285.058594 M 822.601563 327.53125 C 809.300781 334.589844 797.078125 343.910156 787.5 355.589844 C 776.289063 369.160156 768.941406 385.761719 765.75 403.03125 C 766.21875 417.980469 770.808594 433.589844 781.589844 444.421875 C 792.25 455.199219 807.03125 460.609375 821.609375 463.558594 C 825.710938 464.269531 829.929688 466.050781 832.289063 469.660156 C 834.238281 472.441406 834.421875 476.511719 832.191406 479.191406 C 829.53125 482.441406 825 483.320313 821 483.019531 C 807.980469 482.371094 794.960938 481.820313 781.941406 481.359375 C 782.820313 515.769531 783.71875 550.171875 784.628906 584.578125 C 819.25 582.808594 854.058594 580.890625 888.050781 573.628906 C 904.101563 570.101563 920 565.238281 934.550781 557.488281 C 945.660156 551.550781 955.921875 543.71875 963.710938 533.75 C 972.28125 522.898438 977.589844 509.660156 979.679688 496.039063 C 979.929688 489.378906 977.46875 482.78125 973.679688 477.371094 C 968.25 469.710938 960.320313 464.269531 952.191406 459.808594 C 933.949219 450.070313 913.808594 444.851563 894.699219 437.179688 C 888.230469 434.648438 881.828125 431.078125 877.71875 425.308594 C 874.570313 421.03125 873.089844 415.171875 875.148438 410.109375 C 877.539063 403.949219 883.859375 400.398438 890.03125 399.011719 C 901.210938 396.570313 912.5 394.351563 923.96875 393.75 C 922.878906 363.738281 921.621094 333.738281 920.410156 303.730469 C 886.859375 306.089844 852.671875 311.730469 822.601563 327.53125 M 161.21875 327.878906 C 177.199219 412.03125 193.121094 496.199219 209.128906 580.339844 C 232.660156 571.910156 256.230469 563.601563 279.699219 555.011719 C 279.53125 524.730469 279.871094 494.441406 279.53125 464.171875 C 266.019531 411.179688 252.199219 358.25 238.519531 305.300781 C 212.761719 312.859375 186.96875 320.308594 161.21875 327.878906 M 443.160156 358.808594 C 442.570313 384.671875 441.820313 410.53125 441.03125 436.378906 C 424.921875 409.140625 409.039063 381.761719 392.988281 354.480469 C 365.191406 360.640625 337.390625 366.789063 309.601563 372.980469 C 309.589844 452.328125 309.570313 531.671875 309.609375 611.011719 C 339.488281 606.269531 369.371094 601.511719 399.25 596.75 C 396.640625 571.460938 393.640625 546.199219 391.128906 520.898438 C 409.800781 553.03125 428.609375 585.078125 447.339844 617.171875 C 475.21875 611.761719 503.078125 606.25 530.949219 600.808594 C 531.710938 585.210938 532.480469 569.609375 533.21875 554.011719 C 526.039063 553 518.839844 552.089844 511.671875 551.050781 C 519.339844 529.589844 527.070313 508.148438 534.761719 486.699219 C 535.601563 484.199219 536.839844 481.761719 536.890625 479.070313 C 539.058594 433.488281 541.320313 387.910156 543.511719 342.328125 C 510.058594 347.820313 476.570313 353.128906 443.160156 358.808594 M 939.890625 422.328125 C 943.960938 424.050781 948.109375 425.539063 952.191406 427.238281 C 952.871094 425.378906 953.53125 423.519531 954.191406 421.660156 C 949.421875 421.871094 944.648438 422.058594 939.890625 422.328125 M 1058.941406 372.421875 C 1063.421875 358.890625 1067.828125 345.339844 1072.390625 331.828125 C 1075.621094 345.078125 1079.078125 358.28125 1082.140625 371.570313 C 1074.410156 371.851563 1066.671875 372.171875 1058.941406 372.421875 M 656.871094 385.960938 C 660.25 399.171875 663.480469 412.429688 666.738281 425.671875 C 658.910156 425.960938 651.089844 426.230469 643.269531 426.539063 C 647.789063 413.011719 652.308594 399.46875 656.871094 385.960938 M 1352.511719 586.738281 C 1364.339844 584.109375 1377.390625 591.410156 1381.089844 603 C 1384.148438 611.800781 1381.328125 622.148438 1374.410156 628.339844 C 1367.128906 635.179688 1355.601563 636.910156 1346.648438 632.449219 C 1337.910156 628.328125 1332.050781 618.71875 1332.808594 609.03125 C 1333.300781 598.238281 1341.980469 588.71875 1352.511719 586.738281 M 1352.390625 591.699219 C 1343.550781 593.878906 1336.828125 602.761719 1337.699219 611.921875 C 1338.191406 621.019531 1345.878906 628.941406 1354.898438 629.949219 C 1363.308594 631.171875 1372.148438 626.359375 1375.640625 618.601563 C 1378.679688 612.199219 1377.738281 604.160156 1373.269531 598.660156 C 1368.480469 592.488281 1359.921875 589.640625 1352.390625 591.699219 M 1349.78125 600.320313 C 1354.691406 600.488281 1359.660156 599.960938 1364.550781 600.660156 C 1369.371094 601.371094 1370.769531 608.328125 1367.378906 611.410156 C 1366.019531 612.589844 1364.160156 612.808594 1362.519531 613.289063 C 1366.609375 615.820313 1368.640625 620.378906 1371.339844 624.171875 C 1369.96875 624.160156 1368.621094 624.160156 1367.289063 624.171875 C 1365.199219 621.121094 1363.449219 617.789063 1360.941406 615.070313 C 1358.898438 612.769531 1355.578125 613.828125 1352.929688 613.621094 C 1352.898438 617.128906 1352.898438 620.648438 1352.921875 624.171875 C 1352.140625 624.171875 1350.558594 624.171875 1349.769531 624.179688 C 1349.761719 616.21875 1349.75 608.269531 1349.78125 600.320313 M 1352.929688 602.890625 C 1352.898438 605.550781 1352.898438 608.21875 1352.929688 610.890625 C 1356.460938 610.808594 1360.070313 611.210938 1363.570313 610.488281 C 1366.710938 609.410156 1366.941406 604.429688 1363.71875 603.328125 C 1360.199219 602.460938 1356.511719 603.019531 1352.929688 602.890625 "/>
<path style=" stroke:none;fill-rule:nonzero;fill:rgb(100%,96.09375%,0%);fill-opacity:1;" d="M 74.230469 73.671875 C 524.738281 73.589844 975.25 73.640625 1425.761719 73.648438 C 1425.75 299.628906 1425.769531 525.621094 1425.75 751.601563 C 975.25 751.609375 524.75 751.609375 74.25 751.601563 C 74.21875 525.628906 74.269531 299.648438 74.230469 73.671875 M 163.578125 129.160156 C 162.070313 161.199219 160.300781 193.230469 158.570313 225.261719 C 166.128906 225.558594 173.691406 225.890625 181.25 226.140625 C 181.53125 202.878906 181.511719 179.621094 181.890625 156.371094 C 187.53125 178.769531 192.859375 201.25 198.378906 223.679688 C 206.550781 223.691406 214.71875 223.679688 222.890625 223.691406 C 225.769531 214.328125 228.640625 204.980469 231.480469 195.609375 C 235.011719 181.269531 238.070313 166.808594 241.648438 152.480469 C 242.628906 160.589844 242.320313 168.769531 242.269531 176.921875 C 241.871094 192.511719 241.898438 208.121094 240.910156 223.691406 C 249.550781 224.011719 258.179688 224.53125 266.828125 224.730469 C 265.800781 193.121094 264.929688 161.480469 265.378906 129.851563 C 253.320313 129.660156 241.25 129.300781 229.179688 129.191406 C 223.960938 150.589844 219.550781 172.171875 214.648438 193.640625 C 209.730469 172.261719 205.078125 150.800781 200 129.460938 C 187.859375 129.429688 175.71875 129.210938 163.578125 129.160156 M 288.96875 161.910156 C 284.199219 165.429688 281.050781 171.140625 281.390625 177.160156 C 289.808594 176.710938 298.269531 176.648438 306.660156 177.691406 C 306.78125 174.738281 306.929688 171.800781 307.039063 168.851563 C 314.640625 168.410156 322.328125 169.738281 329.488281 172.25 C 329.730469 175.378906 329.941406 178.511719 329.921875 181.648438 C 316.628906 182.710938 303.179688 183.679688 290.289063 187.269531 C 284.328125 188.71875 280.851563 194.441406 279.089844 199.910156 C 277.289063 205.648438 276.789063 212.46875 280.28125 217.699219 C 283.519531 222.519531 289.339844 224.820313 294.921875 225.488281 C 306.128906 226.71875 317.808594 224.070313 327.191406 217.738281 C 328.410156 220.210938 329.53125 222.730469 330.898438 225.128906 C 338.828125 223.371094 346.988281 222.429688 355.089844 223.5 C 353.871094 217.378906 352.570313 211.261719 352.019531 205.039063 C 351.019531 195.398438 352.941406 185.738281 352.261719 176.089844 C 351.789063 169.941406 348.878906 163.871094 343.839844 160.191406 C 336.75 154.941406 327.601563 153.800781 319.03125 153.640625 C 308.578125 153.609375 297.5 155.46875 288.96875 161.910156 M 454.671875 165.679688 C 449.03125 174.171875 448.238281 184.96875 449.601563 194.828125 C 450.859375 203.808594 456.03125 212.609375 464.46875 216.5 C 473.988281 220.871094 485.460938 220.648438 494.960938 216.320313 C 494.890625 223.148438 494.800781 229.96875 494.761719 236.789063 C 487.730469 236.699219 480.710938 236.769531 473.679688 236.589844 C 473.761719 232.839844 473.789063 229.101563 473.871094 225.351563 C 465.53125 224.839844 457.199219 224.261719 448.851563 223.789063 C 448.601563 230.808594 449.199219 238.480469 453.839844 244.128906 C 459.160156 250.691406 467.859375 252.988281 475.910156 253.871094 C 487.371094 254.929688 499.570313 254.519531 509.960938 249.019531 C 516.058594 245.761719 521.460938 240.191406 522.5 233.109375 C 523.988281 224.148438 523.421875 215.03125 523.558594 205.988281 C 523.558594 189.359375 523.550781 172.730469 523.570313 156.101563 C 518.019531 155.988281 512.480469 155.851563 506.941406 155.78125 C 505.800781 157.921875 504.671875 160.058594 503.589844 162.21875 C 496.03125 154.351563 484.269531 152.558594 473.890625 154.140625 C 466.300781 155.210938 458.941406 159.191406 454.671875 165.679688 M 387.949219 166.839844 C 387.460938 164.578125 386.988281 162.308594 386.539063 160.039063 C 380.101563 159.511719 373.648438 159.171875 367.199219 158.769531 C 369.039063 179.660156 367.699219 200.671875 366.851563 221.578125 C 374.898438 221.320313 382.949219 221.121094 391 220.851563 C 391.191406 214.53125 391.390625 208.21875 391.730469 201.910156 C 392.390625 193.671875 391.589844 185.410156 391.550781 177.160156 C 397.671875 176.851563 403.789063 176.421875 409.921875 176.140625 C 410.480469 183.421875 411.359375 190.671875 411.820313 197.960938 C 411.550781 206.429688 411.179688 214.910156 410.75 223.390625 C 419.28125 223.71875 427.828125 223.921875 436.351563 224.558594 C 435.808594 210.039063 435.828125 195.480469 437.050781 180.988281 C 437.53125 174.398438 437.410156 167.089844 433.398438 161.5 C 429.910156 156.71875 423.648438 155.25 418.03125 155.230469 C 406.949219 155.109375 396.589844 160.28125 387.949219 166.839844 M 1034.921875 196.949219 C 1008.160156 271 981.808594 345.210938 954.988281 419.238281 C 952.601563 370.351563 951.109375 321.421875 948.898438 272.519531 C 925.539063 274.121094 902.058594 274.96875 878.960938 279.070313 C 845.089844 284.890625 811.078125 296.011719 784.011719 317.851563 C 768.199219 330.390625 755.429688 346.640625 746.878906 364.910156 C 736.800781 320.628906 726.761719 276.328125 716.71875 232.039063 C 684.25 238.398438 651.769531 244.699219 619.320313 251.128906 C 603.351563 295.730469 587.398438 340.328125 571.28125 384.871094 C 572.46875 359.078125 573.78125 333.300781 575.011719 307.511719 C 521.699219 316.179688 468.398438 324.941406 415.089844 333.621094 C 412.671875 329.488281 410.238281 325.351563 407.828125 321.21875 C 365.460938 330.589844 323.109375 340.011719 280.738281 349.390625 C 273.75 322.460938 266.808594 295.519531 259.839844 268.589844 C 215.570313 281.480469 171.308594 294.421875 127.050781 307.308594 C 146.78125 411.421875 166.558594 515.53125 186.28125 619.648438 C 217.441406 608.539063 248.558594 597.359375 279.699219 586.21875 C 279.738281 605.941406 279.699219 625.660156 279.71875 645.378906 C 325.308594 638.070313 370.941406 631 416.5 623.53125 C 421.960938 632.230469 426.898438 641.25 432.179688 650.058594 C 474.648438 641.730469 517.128906 633.441406 559.601563 625.070313 C 560.671875 602.710938 561.75 580.351563 562.859375 558 C 584.28125 560.960938 605.730469 563.710938 627.128906 566.820313 C 626.851563 570.601563 626.660156 574.390625 626.449219 578.179688 C 668.921875 566.820313 711.359375 555.359375 753.828125 544 C 754.410156 567.761719 755.019531 591.511719 755.691406 615.261719 C 804.300781 612.75 853.441406 611.871094 901.070313 600.738281 C 924.851563 594.828125 948.429688 586 967.929688 570.808594 C 988 555.421875 1002.46875 532.859375 1007.640625 508.058594 C 1019.269531 509.46875 1030.871094 511.230469 1042.480469 512.789063 C 1042.25 516.558594 1042.019531 520.328125 1041.828125 524.109375 C 1079.050781 514.148438 1116.261719 504.140625 1153.480469 494.199219 C 1151.808594 514.578125 1150.039063 534.96875 1148.371094 555.359375 C 1212.570313 565.140625 1276.761719 574.960938 1340.96875 584.710938 C 1346.871094 524.75 1352.851563 464.800781 1358.761719 404.839844 C 1340.558594 408.898438 1322.378906 413.019531 1304.179688 417.078125 C 1309.921875 362.519531 1315.71875 307.960938 1321.460938 253.398438 C 1272.128906 254.378906 1222.800781 255.378906 1173.460938 256.378906 C 1171.339844 281.351563 1169.339844 306.320313 1167.121094 331.28125 C 1155.378906 280.191406 1143.859375 229.050781 1132.160156 177.949219 C 1099.738281 184.261719 1067.351563 190.671875 1034.921875 196.949219 M 1352.511719 586.738281 C 1341.980469 588.71875 1333.300781 598.238281 1332.808594 609.03125 C 1332.050781 618.71875 1337.910156 628.328125 1346.648438 632.449219 C 1355.601563 636.910156 1367.128906 635.179688 1374.410156 628.339844 C 1381.328125 622.148438 1384.148438 611.800781 1381.089844 603 C 1377.390625 591.410156 1364.339844 584.109375 1352.511719 586.738281 M 477.828125 173.101563 C 486.039063 173.429688 494.261719 173.679688 502.46875 174.019531 C 502.691406 182.320313 503 190.609375 503.160156 198.910156 C 494.71875 199.109375 486.269531 199.261719 477.828125 199.449219 C 477.820313 190.660156 477.820313 181.878906 477.828125 173.101563 M 304.328125 198.308594 C 310.789063 196.410156 317.441406 195.128906 324.160156 194.78125 C 324.160156 199.46875 323.980469 204.179688 323.058594 208.800781 C 316.808594 209.230469 310.570313 209.78125 304.320313 210.171875 C 304.328125 206.210938 304.328125 202.261719 304.328125 198.308594 M 939.890625 422.328125 C 944.648438 422.058594 949.421875 421.871094 954.191406 421.660156 C 953.53125 423.519531 952.871094 425.378906 952.191406 427.238281 C 948.109375 425.539063 943.960938 424.050781 939.890625 422.328125 M 1352.390625 591.699219 C 1359.921875 589.640625 1368.480469 592.488281 1373.269531 598.660156 C 1377.738281 604.160156 1378.679688 612.199219 1375.640625 618.601563 C 1372.148438 626.359375 1363.308594 631.171875 1354.898438 629.949219 C 1345.878906 628.941406 1338.191406 621.019531 1337.699219 611.921875 C 1336.828125 602.761719 1343.550781 593.878906 1352.390625 591.699219 M 1349.78125 600.320313 C 1349.75 608.269531 1349.761719 616.21875 1349.769531 624.179688 C 1350.558594 624.171875 1352.140625 624.171875 1352.921875 624.171875 C 1352.898438 620.648438 1352.898438 617.128906 1352.929688 613.621094 C 1355.578125 613.828125 1358.898438 612.769531 1360.941406 615.070313 C 1363.449219 617.789063 1365.199219 621.121094 1367.289063 624.171875 C 1368.621094 624.160156 1369.96875 624.160156 1371.339844 624.171875 C 1368.640625 620.378906 1366.609375 615.820313 1362.519531 613.289063 C 1364.160156 612.808594 1366.019531 612.589844 1367.378906 611.410156 C 1370.769531 608.328125 1369.371094 601.371094 1364.550781 600.660156 C 1359.660156 599.960938 1354.691406 600.488281 1349.78125 600.320313 M 1352.929688 602.890625 C 1356.511719 603.019531 1360.199219 602.460938 1363.71875 603.328125 C 1366.941406 604.429688 1366.710938 609.410156 1363.570313 610.488281 C 1360.070313 611.210938 1356.460938 610.808594 1352.929688 610.890625 C 1352.898438 608.21875 1352.898438 605.550781 1352.929688 602.890625 "/>
<path style=" stroke:none;fill-rule:nonzero;fill:rgb(97.264099%,13.330078%,17.259216%);fill-opacity:1;" d="M 1057.328125 222.480469 C 1074.71875 219.078125 1092.109375 215.691406 1109.5 212.269531 C 1128.339844 295.03125 1147.230469 377.789063 1165.988281 460.570313 C 1135.328125 468.738281 1104.691406 477.019531 1074.03125 485.191406 C 1075.371094 461.300781 1076.910156 437.410156 1078.28125 413.519531 C 1072 415.488281 1065.738281 417.5 1059.46875 419.5 C 1053.910156 440.71875 1048.308594 461.941406 1042.839844 483.199219 C 1030.839844 481.730469 1018.878906 479.96875 1006.921875 478.289063 C 1002.269531 463.171875 991.558594 450.53125 978.679688 441.640625 C 1004.839844 368.570313 1031.078125 295.53125 1057.328125 222.480469 M 1058.941406 372.421875 C 1066.671875 372.171875 1074.410156 371.851563 1082.140625 371.570313 C 1079.078125 358.28125 1075.621094 345.078125 1072.390625 331.828125 C 1067.828125 345.339844 1063.421875 358.890625 1058.941406 372.421875 M 641.769531 276.660156 C 659.171875 273.140625 676.601563 269.761719 694.039063 266.410156 C 712.769531 349.171875 731.679688 431.898438 750.308594 514.679688 C 719.699219 522.828125 689.128906 531.128906 658.53125 539.289063 C 659.839844 515.328125 661.289063 491.390625 662.621094 467.441406 C 656.328125 469.488281 650.019531 471.488281 643.769531 473.648438 C 638.230469 494.828125 632.679688 516.019531 627.101563 537.191406 C 602.050781 533.789063 577.011719 530.390625 551.96875 526.96875 C 581.851563 443.519531 611.890625 360.121094 641.769531 276.660156 M 656.871094 385.960938 C 652.308594 399.46875 647.789063 413.011719 643.269531 426.539063 C 651.089844 426.230469 658.910156 425.960938 666.738281 425.671875 C 663.480469 412.429688 660.25 399.171875 656.871094 385.960938 M 1201.011719 285.058594 C 1230.121094 284.441406 1259.238281 283.859375 1288.359375 283.308594 C 1282.351563 340.449219 1276.28125 397.578125 1270.261719 454.71875 C 1288.558594 450.648438 1306.828125 446.46875 1325.128906 442.421875 C 1321.558594 478.648438 1317.988281 514.878906 1314.371094 551.109375 C 1269.738281 544.371094 1225.148438 537.378906 1180.5 530.789063 C 1181.449219 515.851563 1182.949219 500.941406 1184.128906 486.019531 C 1189.839844 484.410156 1195.609375 483.039063 1201.300781 481.320313 C 1197.25 463.238281 1192.78125 445.21875 1189.140625 427.070313 C 1192.96875 379.730469 1197.070313 332.398438 1201.011719 285.058594 M 822.601563 327.53125 C 852.671875 311.730469 886.859375 306.089844 920.410156 303.730469 C 921.621094 333.738281 922.878906 363.738281 923.96875 393.75 C 912.5 394.351563 901.210938 396.570313 890.03125 399.011719 C 883.859375 400.398438 877.539063 403.949219 875.148438 410.109375 C 873.089844 415.171875 874.570313 421.03125 877.71875 425.308594 C 881.828125 431.078125 888.230469 434.648438 894.699219 437.179688 C 913.808594 444.851563 933.949219 450.070313 952.191406 459.808594 C 960.320313 464.269531 968.25 469.710938 973.679688 477.371094 C 977.46875 482.78125 979.929688 489.378906 979.679688 496.039063 C 977.589844 509.660156 972.28125 522.898438 963.710938 533.75 C 955.921875 543.71875 945.660156 551.550781 934.550781 557.488281 C 920 565.238281 904.101563 570.101563 888.050781 573.628906 C 854.058594 580.890625 819.25 582.808594 784.628906 584.578125 C 783.71875 550.171875 782.820313 515.769531 781.941406 481.359375 C 794.960938 481.820313 807.980469 482.371094 821 483.019531 C 825 483.320313 829.53125 482.441406 832.191406 479.191406 C 834.421875 476.511719 834.238281 472.441406 832.289063 469.660156 C 829.929688 466.050781 825.710938 464.269531 821.609375 463.558594 C 807.03125 460.609375 792.25 455.199219 781.589844 444.421875 C 770.808594 433.589844 766.21875 417.980469 765.75 403.03125 C 768.941406 385.761719 776.289063 369.160156 787.5 355.589844 C 797.078125 343.910156 809.300781 334.589844 822.601563 327.53125 M 161.21875 327.878906 C 186.96875 320.308594 212.761719 312.859375 238.519531 305.300781 C 252.199219 358.25 266.019531 411.179688 279.53125 464.171875 C 279.871094 494.441406 279.53125 524.730469 279.699219 555.011719 C 256.230469 563.601563 232.660156 571.910156 209.128906 580.339844 C 193.121094 496.199219 177.199219 412.03125 161.21875 327.878906 M 443.160156 358.808594 C 476.570313 353.128906 510.058594 347.820313 543.511719 342.328125 C 541.320313 387.910156 539.058594 433.488281 536.890625 479.070313 C 536.839844 481.761719 535.601563 484.199219 534.761719 486.699219 C 527.070313 508.148438 519.339844 529.589844 511.671875 551.050781 C 518.839844 552.089844 526.039063 553 533.21875 554.011719 C 532.480469 569.609375 531.710938 585.210938 530.949219 600.808594 C 503.078125 606.25 475.21875 611.761719 447.339844 617.171875 C 428.609375 585.078125 409.800781 553.03125 391.128906 520.898438 C 393.640625 546.199219 396.640625 571.460938 399.25 596.75 C 369.371094 601.511719 339.488281 606.269531 309.609375 611.011719 C 309.570313 531.671875 309.589844 452.328125 309.601563 372.980469 C 337.390625 366.789063 365.191406 360.640625 392.988281 354.480469 C 409.039063 381.761719 424.921875 409.140625 441.03125 436.378906 C 441.820313 410.53125 442.570313 384.671875 443.160156 358.808594 "/>
</g>
</svg>
